<?xml version="1.0" encoding="UTF-8"?>
<svg id="Capa_2" data-name="Capa 2" xmlns="http://www.w3.org/2000/svg" viewBox="0 0 246.82 220.08">
  <defs>
    <style>
      .cls-1 {
        fill: #00a451;
      }
    </style>
  </defs>
  <g id="Capa_1-2" data-name="Capa 1">
    <path class="cls-1" d="m246.82,220.08c-17.81-.25-34.14-12.55-46.89-32.9-10.53-16.78-18.63-39.03-23.15-64.51-2.62-14.72-4.04-30.52-4.04-46.97-2.01,4.93-4.93,11.21-7.17,18.17l-21.54,65.95c-2.3,7.06-5.07,13.84-7.89,19.39-2.47,4.89-7.49,7.97-12.97,7.97-10.09,0-19.07-7.85-24.68-24.45l-1.78-5.24v-.02l-20.2-59.57c-2.69-7.85-6.28-17.04-8.52-22.43-4.04,21.99-6.73,83.67-6.73,111.71h-10.77c-6.67,0-12.12-2.51-15.5-7.19-2.43-3.34-3.79-7.79-3.79-13.22,0-32.07,9.71-100.39,15.06-133.25.03-.17.05-.32.07-.46C31.75,15.02,15.65,3.17,0,.3c28.41-2.75,56.11,13.41,78.17,40.9,5.66,7.05,10.95,14.85,15.79,23.27,13.79,23.99,23.89,52.99,28.37,84.04-.02.09-.03.18-.05.27h-.02s.01.03.01.04c0-.01,0-.03,0-.04l.09-.03c-.01-.08-.02-.16-.04-.24,1.12-5.69,2.66-10.32,4.2-15.39l17.73-54.51c6.69-20.86,14.86-35.19,21.02-42.15,1.66-1.88,4.06-2.94,6.57-2.94,17.05,0,28.26,10.77,30.73,31.86,0,27.86,2.13,53.98,5.85,76.55,7.63,46.16,21.93,77.43,38.39,78.15Z"/>
  </g>
</svg>